<mxfile host="65bd71144e">
    <diagram id="d6EjX0FEcBJfM_NAS0py" name="Youssef Al-Hassan ER">
        <mxGraphModel dx="1465" dy="1690" grid="1" gridSize="10" guides="1" tooltips="1" connect="1" arrows="1" fold="1" page="1" pageScale="1" pageWidth="850" pageHeight="1100" math="0" shadow="0">
            <root>
                <mxCell id="0"/>
                <mxCell id="1" parent="0"/>
                <mxCell id="3" value="&lt;font style=&quot;font-size: 24px;&quot;&gt;User&lt;/font&gt;" style="rounded=1;whiteSpace=wrap;html=1;" parent="1" vertex="1">
                    <mxGeometry x="-340" y="-30" width="120" height="60" as="geometry"/>
                </mxCell>
                <mxCell id="4" value="&lt;font style=&quot;font-size: 24px;&quot;&gt;Oauth Provider&lt;/font&gt;" style="rounded=1;whiteSpace=wrap;html=1;" parent="1" vertex="1">
                    <mxGeometry x="-420" y="216" width="160" height="60" as="geometry"/>
                </mxCell>
                <mxCell id="6" value="&lt;font style=&quot;font-size: 24px;&quot;&gt;Resume&lt;/font&gt;" style="rounded=1;whiteSpace=wrap;html=1;" parent="1" vertex="1">
                    <mxGeometry x="220" y="-30" width="160" height="60" as="geometry"/>
                </mxCell>
                <mxCell id="7" value="&lt;font style=&quot;font-size: 24px;&quot;&gt;Education&lt;/font&gt;" style="rounded=1;whiteSpace=wrap;html=1;" parent="1" vertex="1">
                    <mxGeometry x="-310" y="60" width="160" height="60" as="geometry"/>
                </mxCell>
                <mxCell id="9" value="&lt;font style=&quot;font-size: 24px;&quot;&gt;Skill&lt;/font&gt;" style="rounded=1;whiteSpace=wrap;html=1;" parent="1" vertex="1">
                    <mxGeometry x="-52.5" y="190" width="105" height="60" as="geometry"/>
                </mxCell>
                <mxCell id="10" value="&lt;font style=&quot;font-size: 24px;&quot;&gt;Experience&lt;/font&gt;" style="rounded=1;whiteSpace=wrap;html=1;" parent="1" vertex="1">
                    <mxGeometry x="-170" y="410" width="170" height="60" as="geometry"/>
                </mxCell>
                <mxCell id="12" value="&lt;font style=&quot;font-size: 24px;&quot;&gt;Profile&lt;/font&gt;" style="rounded=1;whiteSpace=wrap;html=1;" parent="1" vertex="1">
                    <mxGeometry x="-60" y="-30" width="120" height="60" as="geometry"/>
                </mxCell>
                <mxCell id="14" value="&lt;font style=&quot;font-size: 24px;&quot;&gt;Hobby&lt;/font&gt;" style="rounded=1;whiteSpace=wrap;html=1;" parent="1" vertex="1">
                    <mxGeometry x="30" y="410" width="110" height="60" as="geometry"/>
                </mxCell>
                <mxCell id="15" value="&lt;font style=&quot;font-size: 24px;&quot;&gt;Section&lt;/font&gt;" style="rounded=1;whiteSpace=wrap;html=1;" parent="1" vertex="1">
                    <mxGeometry x="215" y="190" width="170" height="60" as="geometry"/>
                </mxCell>
                <mxCell id="19" value="Uses" style="rhombus;whiteSpace=wrap;html=1;" parent="1" vertex="1">
                    <mxGeometry x="-380" y="90" width="80" height="80" as="geometry"/>
                </mxCell>
                <mxCell id="21" value="" style="endArrow=none;html=1;entryX=0.5;entryY=1;entryDx=0;entryDy=0;" parent="1" source="4" target="19" edge="1">
                    <mxGeometry width="50" height="50" relative="1" as="geometry">
                        <mxPoint x="-340" y="214" as="sourcePoint"/>
                        <mxPoint x="-300" y="110" as="targetPoint"/>
                    </mxGeometry>
                </mxCell>
                <mxCell id="22" value="" style="endArrow=none;html=1;flowAnimation=0;exitX=0.5;exitY=1;exitDx=0;exitDy=0;entryX=0.5;entryY=0;entryDx=0;entryDy=0;" parent="1" source="3" target="19" edge="1">
                    <mxGeometry width="50" height="50" relative="1" as="geometry">
                        <mxPoint x="-340" as="sourcePoint"/>
                        <mxPoint x="-450" y="10" as="targetPoint"/>
                        <Array as="points">
                            <mxPoint x="-280" y="70"/>
                            <mxPoint x="-340" y="70"/>
                        </Array>
                    </mxGeometry>
                </mxCell>
                <mxCell id="23" value="N" style="text;html=1;align=center;verticalAlign=middle;whiteSpace=wrap;rounded=0;" parent="1" vertex="1">
                    <mxGeometry x="-300" y="30" width="20" height="30" as="geometry"/>
                </mxCell>
                <mxCell id="24" value="N" style="text;html=1;align=center;verticalAlign=middle;whiteSpace=wrap;rounded=0;" parent="1" vertex="1">
                    <mxGeometry x="-360" y="186" width="20" height="30" as="geometry"/>
                </mxCell>
                <mxCell id="32" value="" style="endArrow=none;html=1;exitX=0.5;exitY=1;exitDx=0;exitDy=0;entryX=0.5;entryY=0;entryDx=0;entryDy=0;" parent="1" target="3" edge="1">
                    <mxGeometry width="50" height="50" relative="1" as="geometry">
                        <mxPoint x="-280.0000000000002" y="-160.00000000000023" as="sourcePoint"/>
                        <mxPoint x="-270" y="-140" as="targetPoint"/>
                    </mxGeometry>
                </mxCell>
                <mxCell id="36" value="Accesses" style="rhombus;whiteSpace=wrap;html=1;" parent="1" vertex="1">
                    <mxGeometry x="-180" y="-40" width="80" height="80" as="geometry"/>
                </mxCell>
                <mxCell id="37" value="" style="endArrow=none;html=1;flowAnimation=0;exitX=0;exitY=0.5;exitDx=0;exitDy=0;" parent="1" source="36" edge="1">
                    <mxGeometry width="50" height="50" relative="1" as="geometry">
                        <mxPoint x="-180" y="-0.5" as="sourcePoint"/>
                        <mxPoint x="-220" as="targetPoint"/>
                    </mxGeometry>
                </mxCell>
                <mxCell id="38" value="1" style="text;html=1;align=center;verticalAlign=middle;whiteSpace=wrap;rounded=0;" parent="1" vertex="1">
                    <mxGeometry x="-220" y="-20" width="20" height="30" as="geometry"/>
                </mxCell>
                <mxCell id="39" value="" style="endArrow=none;html=1;exitX=1;exitY=0.5;exitDx=0;exitDy=0;entryX=0;entryY=0.5;entryDx=0;entryDy=0;" parent="1" source="36" target="12" edge="1">
                    <mxGeometry width="50" height="50" relative="1" as="geometry">
                        <mxPoint x="-110" y="-30" as="sourcePoint"/>
                        <mxPoint x="-70" y="-30" as="targetPoint"/>
                    </mxGeometry>
                </mxCell>
                <mxCell id="40" value="N" style="text;html=1;align=center;verticalAlign=middle;whiteSpace=wrap;rounded=0;" parent="1" vertex="1">
                    <mxGeometry x="-80" y="-20" width="20" height="30" as="geometry"/>
                </mxCell>
                <mxCell id="42" value="" style="endArrow=none;html=1;exitX=0.5;exitY=1;exitDx=0;exitDy=0;entryX=0.5;entryY=0;entryDx=0;entryDy=0;" parent="1" edge="1">
                    <mxGeometry width="50" height="50" relative="1" as="geometry">
                        <mxPoint x="-50" y="-130" as="sourcePoint"/>
                        <mxPoint y="-130" as="targetPoint"/>
                    </mxGeometry>
                </mxCell>
                <mxCell id="46" value="Makes" style="rhombus;whiteSpace=wrap;html=1;" parent="1" vertex="1">
                    <mxGeometry x="150" y="-105" width="80" height="80" as="geometry"/>
                </mxCell>
                <mxCell id="49" value="" style="endArrow=none;html=1;flowAnimation=0;entryX=1;entryY=0.5;entryDx=0;entryDy=0;rounded=1;curved=0;exitX=0.25;exitY=0;exitDx=0;exitDy=0;" parent="1" source="6" target="46" edge="1">
                    <mxGeometry width="50" height="50" relative="1" as="geometry">
                        <mxPoint x="300" y="-20" as="sourcePoint"/>
                        <mxPoint x="125" y="-180" as="targetPoint"/>
                        <Array as="points">
                            <mxPoint x="260" y="-65"/>
                        </Array>
                    </mxGeometry>
                </mxCell>
                <mxCell id="50" value="N" style="text;html=1;align=center;verticalAlign=middle;whiteSpace=wrap;rounded=0;" parent="1" vertex="1">
                    <mxGeometry x="240" y="-60" width="20" height="30" as="geometry"/>
                </mxCell>
                <mxCell id="52" value="" style="endArrow=none;html=1;entryX=0;entryY=0.5;entryDx=0;entryDy=0;exitX=1;exitY=0.5;exitDx=0;exitDy=0;" parent="1" source="12" target="46" edge="1">
                    <mxGeometry width="50" height="50" relative="1" as="geometry">
                        <mxPoint x="40" as="sourcePoint"/>
                        <mxPoint x="100" y="-110" as="targetPoint"/>
                        <Array as="points">
                            <mxPoint x="80"/>
                            <mxPoint x="130"/>
                            <mxPoint x="130" y="-65"/>
                        </Array>
                    </mxGeometry>
                </mxCell>
                <mxCell id="53" value="1" style="text;html=1;align=center;verticalAlign=middle;whiteSpace=wrap;rounded=0;" parent="1" vertex="1">
                    <mxGeometry x="60" y="-20" width="20" height="30" as="geometry"/>
                </mxCell>
                <mxCell id="56" value="Has" style="rhombus;whiteSpace=wrap;html=1;" parent="1" vertex="1">
                    <mxGeometry x="-40" y="70" width="80" height="80" as="geometry"/>
                </mxCell>
                <mxCell id="58" value="" style="endArrow=none;html=1;exitX=0.5;exitY=1;exitDx=0;exitDy=0;entryX=0.5;entryY=0;entryDx=0;entryDy=0;" parent="1" source="12" target="56" edge="1">
                    <mxGeometry width="50" height="50" relative="1" as="geometry">
                        <mxPoint x="-70" y="70" as="sourcePoint"/>
                        <mxPoint x="-30" y="70" as="targetPoint"/>
                    </mxGeometry>
                </mxCell>
                <mxCell id="59" value="N" style="text;html=1;align=center;verticalAlign=middle;whiteSpace=wrap;rounded=0;" parent="1" vertex="1">
                    <mxGeometry x="-20" y="30" width="20" height="30" as="geometry"/>
                </mxCell>
                <mxCell id="60" value="" style="endArrow=none;html=1;exitX=0.5;exitY=1;exitDx=0;exitDy=0;entryX=0.5;entryY=0;entryDx=0;entryDy=0;" parent="1" source="56" target="9" edge="1">
                    <mxGeometry width="50" height="50" relative="1" as="geometry">
                        <mxPoint x="10" y="40" as="sourcePoint"/>
                        <mxPoint x="10" y="80" as="targetPoint"/>
                    </mxGeometry>
                </mxCell>
                <mxCell id="61" value="M" style="text;html=1;align=center;verticalAlign=middle;whiteSpace=wrap;rounded=0;" parent="1" vertex="1">
                    <mxGeometry y="160" width="20" height="30" as="geometry"/>
                </mxCell>
                <mxCell id="62" value="Creates" style="rhombus;whiteSpace=wrap;html=1;" parent="1" vertex="1">
                    <mxGeometry x="70" y="70" width="80" height="80" as="geometry"/>
                </mxCell>
                <mxCell id="63" value="" style="endArrow=none;html=1;flowAnimation=0;entryX=1;entryY=0.5;entryDx=0;entryDy=0;exitX=0.5;exitY=0;exitDx=0;exitDy=0;rounded=1;curved=0;" parent="1" source="62" target="12" edge="1">
                    <mxGeometry width="50" height="50" relative="1" as="geometry">
                        <mxPoint x="210" y="-140" as="sourcePoint"/>
                        <mxPoint x="125" y="-180" as="targetPoint"/>
                        <Array as="points">
                            <mxPoint x="110"/>
                        </Array>
                    </mxGeometry>
                </mxCell>
                <mxCell id="64" value="" style="endArrow=none;html=1;flowAnimation=0;entryX=0.5;entryY=1;entryDx=0;entryDy=0;exitX=0.5;exitY=0;exitDx=0;exitDy=0;rounded=1;curved=0;" parent="1" source="15" target="62" edge="1">
                    <mxGeometry width="50" height="50" relative="1" as="geometry">
                        <mxPoint x="160" y="60" as="sourcePoint"/>
                        <mxPoint x="70" y="10" as="targetPoint"/>
                        <Array as="points">
                            <mxPoint x="300" y="170"/>
                            <mxPoint x="110" y="170"/>
                        </Array>
                    </mxGeometry>
                </mxCell>
                <mxCell id="65" value="Includes" style="rhombus;whiteSpace=wrap;html=1;" parent="1" vertex="1">
                    <mxGeometry x="260" y="70" width="80" height="80" as="geometry"/>
                </mxCell>
                <mxCell id="68" value="N" style="text;html=1;align=center;verticalAlign=middle;whiteSpace=wrap;rounded=0;" parent="1" vertex="1">
                    <mxGeometry x="281" y="166" width="20" height="30" as="geometry"/>
                </mxCell>
                <mxCell id="69" value="1" style="text;html=1;align=center;verticalAlign=middle;whiteSpace=wrap;rounded=0;" parent="1" vertex="1">
                    <mxGeometry x="300" y="30" width="20" height="30" as="geometry"/>
                </mxCell>
                <mxCell id="70" value="Credits" style="rhombus;whiteSpace=wrap;html=1;" parent="1" vertex="1">
                    <mxGeometry x="-132.5" y="50" width="80" height="80" as="geometry"/>
                </mxCell>
                <mxCell id="71" value="Powers" style="rhombus;whiteSpace=wrap;html=1;" parent="1" vertex="1">
                    <mxGeometry x="-125" y="290" width="80" height="80" as="geometry"/>
                </mxCell>
                <mxCell id="73" value="Powers" style="rhombus;whiteSpace=wrap;html=1;" parent="1" vertex="1">
                    <mxGeometry x="45" y="290" width="80" height="80" as="geometry"/>
                </mxCell>
                <mxCell id="75" value="N" style="text;html=1;align=center;verticalAlign=middle;whiteSpace=wrap;rounded=0;" parent="1" vertex="1">
                    <mxGeometry x="-152.5" y="67" width="20" height="30" as="geometry"/>
                </mxCell>
                <mxCell id="77" value="" style="endArrow=none;html=1;flowAnimation=0;entryX=0.5;entryY=1;entryDx=0;entryDy=0;exitX=0.5;exitY=0;exitDx=0;exitDy=0;rounded=1;curved=0;" parent="1" source="73" target="9" edge="1">
                    <mxGeometry width="50" height="50" relative="1" as="geometry">
                        <mxPoint x="110" y="290" as="sourcePoint"/>
                        <mxPoint x="-100" y="120" as="targetPoint"/>
                        <Array as="points">
                            <mxPoint x="85" y="270"/>
                            <mxPoint y="270"/>
                        </Array>
                    </mxGeometry>
                </mxCell>
                <mxCell id="78" value="" style="endArrow=none;html=1;flowAnimation=0;entryX=0.5;entryY=1;entryDx=0;entryDy=0;exitX=0.5;exitY=0;exitDx=0;exitDy=0;rounded=1;curved=0;" parent="1" source="71" target="9" edge="1">
                    <mxGeometry width="50" height="50" relative="1" as="geometry">
                        <mxPoint x="120" y="300" as="sourcePoint"/>
                        <mxPoint x="10" y="260" as="targetPoint"/>
                        <Array as="points">
                            <mxPoint x="-85" y="270"/>
                            <mxPoint y="270"/>
                        </Array>
                    </mxGeometry>
                </mxCell>
                <mxCell id="82" value="" style="endArrow=none;html=1;exitX=0.5;exitY=0;exitDx=0;exitDy=0;entryX=0;entryY=0.5;entryDx=0;entryDy=0;" parent="1" source="70" target="12" edge="1">
                    <mxGeometry width="50" height="50" relative="1" as="geometry">
                        <mxPoint x="-100" y="140" as="sourcePoint"/>
                        <mxPoint x="-70" y="130" as="targetPoint"/>
                        <Array as="points">
                            <mxPoint x="-92" y="10"/>
                        </Array>
                    </mxGeometry>
                </mxCell>
                <mxCell id="83" value="1" style="text;html=1;align=center;verticalAlign=middle;whiteSpace=wrap;rounded=0;" parent="1" vertex="1">
                    <mxGeometry x="-80" width="20" height="30" as="geometry"/>
                </mxCell>
                <mxCell id="84" value="N" style="text;html=1;align=center;verticalAlign=middle;whiteSpace=wrap;rounded=0;" parent="1" vertex="1">
                    <mxGeometry x="-105" y="380" width="20" height="30" as="geometry"/>
                </mxCell>
                <mxCell id="86" value="N" style="text;html=1;align=center;verticalAlign=middle;whiteSpace=wrap;rounded=0;" parent="1" vertex="1">
                    <mxGeometry x="85" y="380" width="20" height="30" as="geometry"/>
                </mxCell>
                <mxCell id="87" value="M" style="text;html=1;align=center;verticalAlign=middle;whiteSpace=wrap;rounded=0;" parent="1" vertex="1">
                    <mxGeometry x="-20" y="246" width="20" height="30" as="geometry"/>
                </mxCell>
                <mxCell id="90" value="&lt;font&gt;username&lt;/font&gt;" style="ellipse;whiteSpace=wrap;html=1;fontSize=14;" parent="1" vertex="1">
                    <mxGeometry x="-515" y="-69.99999999999977" width="90" height="50" as="geometry"/>
                </mxCell>
                <mxCell id="91" value="tier" style="ellipse;whiteSpace=wrap;html=1;fontSize=14;" parent="1" vertex="1">
                    <mxGeometry x="-515" y="-9.999999999999773" width="90" height="50" as="geometry"/>
                </mxCell>
                <mxCell id="92" value="status" style="ellipse;whiteSpace=wrap;html=1;fontSize=14;" parent="1" vertex="1">
                    <mxGeometry x="-480" y="50.00000000000023" width="90" height="50" as="geometry"/>
                </mxCell>
                <mxCell id="95" value="" style="endArrow=none;html=1;exitX=1;exitY=0.5;exitDx=0;exitDy=0;" parent="1" source="90" edge="1">
                    <mxGeometry width="50" height="50" relative="1" as="geometry">
                        <mxPoint x="-380" y="-75" as="sourcePoint"/>
                        <mxPoint x="-340" as="targetPoint"/>
                    </mxGeometry>
                </mxCell>
                <mxCell id="96" value="" style="endArrow=none;html=1;exitX=1;exitY=0.5;exitDx=0;exitDy=0;" parent="1" source="91" edge="1">
                    <mxGeometry width="50" height="50" relative="1" as="geometry">
                        <mxPoint x="-415" y="-25" as="sourcePoint"/>
                        <mxPoint x="-340" as="targetPoint"/>
                    </mxGeometry>
                </mxCell>
                <mxCell id="97" value="" style="endArrow=none;html=1;exitX=1;exitY=0.5;exitDx=0;exitDy=0;entryX=0;entryY=0.5;entryDx=0;entryDy=0;" parent="1" source="92" target="3" edge="1">
                    <mxGeometry width="50" height="50" relative="1" as="geometry">
                        <mxPoint x="-415" y="25" as="sourcePoint"/>
                        <mxPoint x="-330" y="10" as="targetPoint"/>
                    </mxGeometry>
                </mxCell>
                <mxCell id="98" value="prefrences" style="ellipse;whiteSpace=wrap;html=1;fontSize=14;" parent="1" vertex="1">
                    <mxGeometry x="-480" y="-124.99999999999977" width="90" height="50" as="geometry"/>
                </mxCell>
                <mxCell id="100" value="name" style="ellipse;whiteSpace=wrap;html=1;fontSize=14;" parent="1" vertex="1">
                    <mxGeometry x="-385" y="300.0000000000002" width="90" height="50" as="geometry"/>
                </mxCell>
                <mxCell id="101" value="" style="endArrow=none;html=1;entryX=1;entryY=1;entryDx=0;entryDy=0;exitX=0;exitY=0.5;exitDx=0;exitDy=0;" parent="1" source="3" target="98" edge="1">
                    <mxGeometry width="50" height="50" relative="1" as="geometry">
                        <mxPoint x="-310" y="-40" as="sourcePoint"/>
                        <mxPoint x="-230" y="-30" as="targetPoint"/>
                    </mxGeometry>
                </mxCell>
                <mxCell id="102" value="" style="endArrow=none;html=1;exitX=0.5;exitY=0;exitDx=0;exitDy=0;entryX=0.5;entryY=1;entryDx=0;entryDy=0;" parent="1" source="100" target="4" edge="1">
                    <mxGeometry width="50" height="50" relative="1" as="geometry">
                        <mxPoint x="-380" y="85" as="sourcePoint"/>
                        <mxPoint x="-330" y="10" as="targetPoint"/>
                    </mxGeometry>
                </mxCell>
                <mxCell id="103" value="refreshToken" style="ellipse;whiteSpace=wrap;html=1;fontSize=14;" parent="1" vertex="1">
                    <mxGeometry x="-510" y="156.00000000000023" width="90" height="50" as="geometry"/>
                </mxCell>
                <mxCell id="104" value="" style="endArrow=none;html=1;exitX=1;exitY=0;exitDx=0;exitDy=0;entryX=0;entryY=0.5;entryDx=0;entryDy=0;" parent="1" source="103" target="19" edge="1">
                    <mxGeometry width="50" height="50" relative="1" as="geometry">
                        <mxPoint x="-425" y="320" as="sourcePoint"/>
                        <mxPoint x="-330" y="286" as="targetPoint"/>
                    </mxGeometry>
                </mxCell>
                <mxCell id="105" value="accessToken" style="ellipse;whiteSpace=wrap;html=1;fontSize=14;fontStyle=0" parent="1" vertex="1">
                    <mxGeometry x="-510" y="100.00000000000023" width="90" height="50" as="geometry"/>
                </mxCell>
                <mxCell id="106" value="" style="endArrow=none;html=1;entryX=0;entryY=0.5;entryDx=0;entryDy=0;exitX=1;exitY=0.5;exitDx=0;exitDy=0;" parent="1" source="105" target="19" edge="1">
                    <mxGeometry width="50" height="50" relative="1" as="geometry">
                        <mxPoint x="-360" y="340" as="sourcePoint"/>
                        <mxPoint x="-310" y="290" as="targetPoint"/>
                    </mxGeometry>
                </mxCell>
                <mxCell id="107" value="&lt;font&gt;association&lt;/font&gt;" style="ellipse;whiteSpace=wrap;html=1;fontSize=14;" parent="1" vertex="1">
                    <mxGeometry x="-275" y="130.00000000000023" width="90" height="50" as="geometry"/>
                </mxCell>
                <mxCell id="111" value="" style="endArrow=none;html=1;exitX=0.5;exitY=0;exitDx=0;exitDy=0;entryX=0.5;entryY=1;entryDx=0;entryDy=0;" parent="1" source="107" target="7" edge="1">
                    <mxGeometry width="50" height="50" relative="1" as="geometry">
                        <mxPoint x="-235" y="195" as="sourcePoint"/>
                        <mxPoint x="-180" y="170" as="targetPoint"/>
                    </mxGeometry>
                </mxCell>
                <mxCell id="115" value="&lt;font&gt;role&lt;/font&gt;" style="ellipse;whiteSpace=wrap;html=1;fontSize=14;" parent="1" vertex="1">
                    <mxGeometry x="-210" y="-119.99999999999977" width="90" height="50" as="geometry"/>
                </mxCell>
                <mxCell id="116" value="" style="endArrow=none;html=1;exitX=0.5;exitY=1;exitDx=0;exitDy=0;entryX=0.5;entryY=0;entryDx=0;entryDy=0;" parent="1" source="115" target="36" edge="1">
                    <mxGeometry width="50" height="50" relative="1" as="geometry">
                        <mxPoint x="-20" y="-40" as="sourcePoint"/>
                        <mxPoint x="30" y="-90" as="targetPoint"/>
                        <Array as="points">
                            <mxPoint x="-165" y="-60"/>
                            <mxPoint x="-140" y="-60"/>
                        </Array>
                    </mxGeometry>
                </mxCell>
                <mxCell id="117" value="&lt;font&gt;fullName&lt;/font&gt;" style="ellipse;whiteSpace=wrap;html=1;fontSize=14;" parent="1" vertex="1">
                    <mxGeometry x="-150" y="-159.99999999999977" width="90" height="50" as="geometry"/>
                </mxCell>
                <mxCell id="118" value="" style="endArrow=none;html=1;exitX=1;exitY=1;exitDx=0;exitDy=0;entryX=0.5;entryY=0;entryDx=0;entryDy=0;" parent="1" source="117" target="12" edge="1">
                    <mxGeometry width="50" height="50" relative="1" as="geometry">
                        <mxPoint x="-20" y="-40" as="sourcePoint"/>
                        <mxPoint x="30" y="-90" as="targetPoint"/>
                    </mxGeometry>
                </mxCell>
                <mxCell id="123" value="" style="endArrow=none;html=1;exitX=0.5;exitY=1;exitDx=0;exitDy=0;entryX=0.5;entryY=0;entryDx=0;entryDy=0;" parent="1" source="121" target="12" edge="1">
                    <mxGeometry width="50" height="50" relative="1" as="geometry">
                        <mxPoint x="-173" y="-97" as="sourcePoint"/>
                        <mxPoint x="-50" y="-50" as="targetPoint"/>
                    </mxGeometry>
                </mxCell>
                <mxCell id="130" value="" style="endArrow=none;html=1;exitX=0.5;exitY=1;exitDx=0;exitDy=0;entryX=0.5;entryY=0;entryDx=0;entryDy=0;" parent="1" source="128" target="12" edge="1">
                    <mxGeometry width="50" height="50" relative="1" as="geometry">
                        <mxPoint x="-165" y="-140" as="sourcePoint"/>
                        <mxPoint x="-50" y="-5" as="targetPoint"/>
                    </mxGeometry>
                </mxCell>
                <mxCell id="131" value="displayText" style="ellipse;whiteSpace=wrap;html=1;fontSize=14;" parent="1" vertex="1">
                    <mxGeometry x="20" y="-209.99999999999977" width="90" height="50" as="geometry"/>
                </mxCell>
                <mxCell id="132" value="&lt;font&gt;link&lt;/font&gt;" style="ellipse;whiteSpace=wrap;html=1;fontSize=14;" parent="1" vertex="1">
                    <mxGeometry x="97" y="-179.99999999999977" width="90" height="50" as="geometry"/>
                </mxCell>
                <mxCell id="133" value="" style="endArrow=none;html=1;entryX=0.5;entryY=1;entryDx=0;entryDy=0;exitX=0.5;exitY=0;exitDx=0;exitDy=0;" parent="1" source="128" target="131" edge="1">
                    <mxGeometry width="50" height="50" relative="1" as="geometry">
                        <mxPoint x="20" y="-260" as="sourcePoint"/>
                        <mxPoint x="70" y="-310" as="targetPoint"/>
                    </mxGeometry>
                </mxCell>
                <mxCell id="134" value="" style="endArrow=none;html=1;entryX=0;entryY=1;entryDx=0;entryDy=0;exitX=0.5;exitY=0;exitDx=0;exitDy=0;" parent="1" source="128" target="132" edge="1">
                    <mxGeometry width="50" height="50" relative="1" as="geometry">
                        <mxPoint x="-60" y="-90" as="sourcePoint"/>
                        <mxPoint x="-10" y="-140" as="targetPoint"/>
                    </mxGeometry>
                </mxCell>
                <mxCell id="140" value="" style="endArrow=none;html=1;entryX=0.5;entryY=1;entryDx=0;entryDy=0;exitX=0.5;exitY=0;exitDx=0;exitDy=0;" parent="1" source="15" target="65" edge="1">
                    <mxGeometry width="50" height="50" relative="1" as="geometry">
                        <mxPoint x="210" y="180" as="sourcePoint"/>
                        <mxPoint x="260" y="130" as="targetPoint"/>
                    </mxGeometry>
                </mxCell>
                <mxCell id="141" value="" style="endArrow=none;html=1;entryX=0.5;entryY=1;entryDx=0;entryDy=0;exitX=0.5;exitY=0;exitDx=0;exitDy=0;" parent="1" source="65" target="6" edge="1">
                    <mxGeometry width="50" height="50" relative="1" as="geometry">
                        <mxPoint x="210" y="120" as="sourcePoint"/>
                        <mxPoint x="260" y="70" as="targetPoint"/>
                    </mxGeometry>
                </mxCell>
                <mxCell id="127" value="" style="group" parent="1" vertex="1" connectable="0">
                    <mxGeometry x="30" y="-130" width="110" height="60" as="geometry"/>
                </mxCell>
                <mxCell id="128" value="" style="ellipse;whiteSpace=wrap;html=1;" parent="127" vertex="1">
                    <mxGeometry width="110" height="60" as="geometry"/>
                </mxCell>
                <mxCell id="129" value="socials" style="ellipse;whiteSpace=wrap;html=1;fontSize=14;" parent="127" vertex="1">
                    <mxGeometry x="10" y="5.000000000000227" width="90" height="50" as="geometry"/>
                </mxCell>
                <mxCell id="142" value="" style="group" parent="1" vertex="1" connectable="0">
                    <mxGeometry x="-55" y="-170" width="110" height="60" as="geometry"/>
                </mxCell>
                <mxCell id="121" value="" style="ellipse;whiteSpace=wrap;html=1;" parent="142" vertex="1">
                    <mxGeometry width="110" height="60" as="geometry"/>
                </mxCell>
                <mxCell id="120" value="&lt;font&gt;contactInfo&lt;/font&gt;" style="ellipse;whiteSpace=wrap;html=1;fontSize=14;" parent="142" vertex="1">
                    <mxGeometry x="10" y="5.000000000000227" width="90" height="50" as="geometry"/>
                </mxCell>
                <mxCell id="143" value="Derived&lt;div&gt;From&lt;/div&gt;" style="rhombus;whiteSpace=wrap;html=1;" parent="1" vertex="1">
                    <mxGeometry x="260" y="-165" width="80" height="80" as="geometry"/>
                </mxCell>
                <mxCell id="144" value="" style="endArrow=none;html=1;flowAnimation=0;entryX=0;entryY=0.5;entryDx=0;entryDy=0;rounded=1;curved=0;exitX=0.25;exitY=0;exitDx=0;exitDy=0;" parent="1" source="6" target="143" edge="1">
                    <mxGeometry width="50" height="50" relative="1" as="geometry">
                        <mxPoint x="260" y="-24.999999999999773" as="sourcePoint"/>
                        <mxPoint x="260" y="-120.00000000000023" as="targetPoint"/>
                        <Array as="points">
                            <mxPoint x="260" y="-65"/>
                            <mxPoint x="240" y="-65"/>
                            <mxPoint x="240" y="-75"/>
                            <mxPoint x="240" y="-95"/>
                            <mxPoint x="240" y="-125"/>
                        </Array>
                    </mxGeometry>
                </mxCell>
                <mxCell id="146" value="" style="endArrow=none;html=1;entryX=0.5;entryY=1;entryDx=0;entryDy=0;exitX=0.5;exitY=0;exitDx=0;exitDy=0;" parent="1" source="6" target="143" edge="1">
                    <mxGeometry width="50" height="50" relative="1" as="geometry">
                        <mxPoint x="330" y="-30" as="sourcePoint"/>
                        <mxPoint x="380" y="-80" as="targetPoint"/>
                    </mxGeometry>
                </mxCell>
                <mxCell id="147" value="1" style="text;html=1;align=center;verticalAlign=middle;whiteSpace=wrap;rounded=0;" parent="1" vertex="1">
                    <mxGeometry x="300" y="-60" width="20" height="30" as="geometry"/>
                </mxCell>
                <mxCell id="148" value="&lt;font&gt;avatar&lt;/font&gt;" style="ellipse;whiteSpace=wrap;html=1;fontSize=14;" parent="1" vertex="1">
                    <mxGeometry x="-140" y="-84.99999999999977" width="90" height="50" as="geometry"/>
                </mxCell>
                <mxCell id="149" value="" style="endArrow=none;html=1;exitX=1;exitY=0.5;exitDx=0;exitDy=0;entryX=0.5;entryY=0;entryDx=0;entryDy=0;" parent="1" source="148" target="12" edge="1">
                    <mxGeometry width="50" height="50" relative="1" as="geometry">
                        <mxPoint x="-93" y="-127" as="sourcePoint"/>
                        <mxPoint x="10" y="-20" as="targetPoint"/>
                    </mxGeometry>
                </mxCell>
                <mxCell id="150" value="&lt;font&gt;avatar&lt;/font&gt;" style="ellipse;whiteSpace=wrap;html=1;fontSize=14;" parent="1" vertex="1">
                    <mxGeometry x="-240" y="-169.99999999999977" width="90" height="50" as="geometry"/>
                </mxCell>
                <mxCell id="151" value="" style="endArrow=none;html=1;entryX=0;entryY=1;entryDx=0;entryDy=0;exitX=0.5;exitY=0;exitDx=0;exitDy=0;" parent="1" source="3" target="150" edge="1">
                    <mxGeometry width="50" height="50" relative="1" as="geometry">
                        <mxPoint x="-300" y="-20" as="sourcePoint"/>
                        <mxPoint x="-325" y="-90" as="targetPoint"/>
                    </mxGeometry>
                </mxCell>
                <mxCell id="156" value="writes" style="rhombus;whiteSpace=wrap;html=1;" parent="1" vertex="1">
                    <mxGeometry x="-170" y="-320" width="80" height="80" as="geometry"/>
                </mxCell>
                <mxCell id="157" value="" style="endArrow=none;html=1;entryX=0;entryY=0.5;entryDx=0;entryDy=0;exitX=0.5;exitY=0;exitDx=0;exitDy=0;" parent="1" source="3" target="156" edge="1">
                    <mxGeometry width="50" height="50" relative="1" as="geometry">
                        <mxPoint x="-270" y="-20" as="sourcePoint"/>
                        <mxPoint x="-217" y="-117" as="targetPoint"/>
                        <Array as="points">
                            <mxPoint x="-280" y="-280"/>
                        </Array>
                    </mxGeometry>
                </mxCell>
                <mxCell id="158" value="1" style="text;html=1;align=center;verticalAlign=middle;whiteSpace=wrap;rounded=0;" parent="1" vertex="1">
                    <mxGeometry x="-295" y="-65" width="20" height="30" as="geometry"/>
                </mxCell>
                <mxCell id="159" value="" style="endArrow=none;html=1;entryX=1;entryY=0.5;entryDx=0;entryDy=0;exitX=1;exitY=0.5;exitDx=0;exitDy=0;" parent="1" source="156" target="15" edge="1">
                    <mxGeometry width="50" height="50" relative="1" as="geometry">
                        <mxPoint x="120" y="-50" as="sourcePoint"/>
                        <mxPoint x="230" y="-300" as="targetPoint"/>
                        <Array as="points">
                            <mxPoint x="520" y="-280"/>
                            <mxPoint x="520" y="220"/>
                        </Array>
                    </mxGeometry>
                </mxCell>
                <mxCell id="161" value="" style="endArrow=none;html=1;exitX=0.5;exitY=0;exitDx=0;exitDy=0;entryX=0.5;entryY=0;entryDx=0;entryDy=0;" parent="1" source="3" target="46" edge="1">
                    <mxGeometry width="50" height="50" relative="1" as="geometry">
                        <mxPoint x="-270" y="-20" as="sourcePoint"/>
                        <mxPoint x="210" y="-220" as="targetPoint"/>
                        <Array as="points">
                            <mxPoint x="-280" y="-230"/>
                            <mxPoint x="190" y="-230"/>
                            <mxPoint x="190" y="-130"/>
                        </Array>
                    </mxGeometry>
                </mxCell>
                <mxCell id="162" value="&lt;font&gt;title&lt;/font&gt;" style="ellipse;whiteSpace=wrap;html=1;fontSize=14;" parent="1" vertex="1">
                    <mxGeometry x="410" y="-54.99999999999977" width="90" height="50" as="geometry"/>
                </mxCell>
                <mxCell id="163" value="" style="endArrow=none;html=1;exitX=1;exitY=0.5;exitDx=0;exitDy=0;entryX=0;entryY=0.5;entryDx=0;entryDy=0;" parent="1" source="6" target="162" edge="1">
                    <mxGeometry width="50" height="50" relative="1" as="geometry">
                        <mxPoint x="370" y="60" as="sourcePoint"/>
                        <mxPoint x="420" y="10" as="targetPoint"/>
                    </mxGeometry>
                </mxCell>
                <mxCell id="164" value="&lt;font&gt;title&lt;/font&gt;" style="ellipse;whiteSpace=wrap;html=1;fontSize=14;" parent="1" vertex="1">
                    <mxGeometry x="190" y="276.0000000000002" width="90" height="50" as="geometry"/>
                </mxCell>
                <mxCell id="165" value="" style="endArrow=none;html=1;entryX=0.5;entryY=1;entryDx=0;entryDy=0;exitX=1;exitY=0;exitDx=0;exitDy=0;" parent="1" source="164" target="15" edge="1">
                    <mxGeometry width="50" height="50" relative="1" as="geometry">
                        <mxPoint x="180" y="360" as="sourcePoint"/>
                        <mxPoint x="230" y="310" as="targetPoint"/>
                    </mxGeometry>
                </mxCell>
                <mxCell id="166" value="&lt;font&gt;content&lt;/font&gt;" style="ellipse;whiteSpace=wrap;html=1;fontSize=14;" parent="1" vertex="1">
                    <mxGeometry x="320" y="276.0000000000002" width="90" height="50" as="geometry"/>
                </mxCell>
                <mxCell id="167" value="" style="endArrow=none;html=1;entryX=0.5;entryY=1;entryDx=0;entryDy=0;exitX=0;exitY=0;exitDx=0;exitDy=0;" parent="1" source="166" target="15" edge="1">
                    <mxGeometry width="50" height="50" relative="1" as="geometry">
                        <mxPoint x="277" y="293" as="sourcePoint"/>
                        <mxPoint x="310" y="260" as="targetPoint"/>
                    </mxGeometry>
                </mxCell>
                <mxCell id="168" value="&lt;font&gt;line&lt;/font&gt;" style="ellipse;whiteSpace=wrap;html=1;fontSize=14;" parent="1" vertex="1">
                    <mxGeometry x="105" y="250.00000000000023" width="90" height="50" as="geometry"/>
                </mxCell>
                <mxCell id="170" value="" style="endArrow=none;html=1;exitX=1;exitY=0.5;exitDx=0;exitDy=0;entryX=0.5;entryY=1;entryDx=0;entryDy=0;" parent="1" source="73" target="168" edge="1">
                    <mxGeometry width="50" height="50" relative="1" as="geometry">
                        <mxPoint x="180" y="390" as="sourcePoint"/>
                        <mxPoint x="160" y="290" as="targetPoint"/>
                        <Array as="points">
                            <mxPoint x="150" y="330"/>
                        </Array>
                    </mxGeometry>
                </mxCell>
                <mxCell id="171" value="&lt;font&gt;Name&lt;/font&gt;" style="ellipse;whiteSpace=wrap;html=1;fontSize=14;" parent="1" vertex="1">
                    <mxGeometry x="60" y="195.00000000000023" width="90" height="50" as="geometry"/>
                </mxCell>
                <mxCell id="172" value="" style="endArrow=none;html=1;exitX=1;exitY=0.5;exitDx=0;exitDy=0;entryX=0;entryY=0.5;entryDx=0;entryDy=0;" parent="1" source="9" target="171" edge="1">
                    <mxGeometry width="50" height="50" relative="1" as="geometry">
                        <mxPoint x="160" y="340" as="sourcePoint"/>
                        <mxPoint x="175" y="300" as="targetPoint"/>
                    </mxGeometry>
                </mxCell>
                <mxCell id="175" value="&lt;font&gt;Name&lt;/font&gt;" style="ellipse;whiteSpace=wrap;html=1;fontSize=14;" parent="1" vertex="1">
                    <mxGeometry x="170" y="415.0000000000002" width="90" height="50" as="geometry"/>
                </mxCell>
                <mxCell id="176" value="" style="endArrow=none;html=1;exitX=0;exitY=0.5;exitDx=0;exitDy=0;entryX=1;entryY=0.5;entryDx=0;entryDy=0;" parent="1" source="175" target="14" edge="1">
                    <mxGeometry width="50" height="50" relative="1" as="geometry">
                        <mxPoint x="160" y="340" as="sourcePoint"/>
                        <mxPoint x="175" y="300" as="targetPoint"/>
                    </mxGeometry>
                </mxCell>
                <mxCell id="177" value="association" style="ellipse;whiteSpace=wrap;html=1;fontSize=14;" parent="1" vertex="1">
                    <mxGeometry x="-205" y="490.0000000000002" width="90" height="50" as="geometry"/>
                </mxCell>
                <mxCell id="178" value="title" style="ellipse;whiteSpace=wrap;html=1;fontSize=14;" parent="1" vertex="1">
                    <mxGeometry x="-130" y="525.0000000000002" width="90" height="50" as="geometry"/>
                </mxCell>
                <mxCell id="179" value="type" style="ellipse;whiteSpace=wrap;html=1;fontSize=14;" parent="1" vertex="1">
                    <mxGeometry x="-55" y="490.0000000000002" width="90" height="50" as="geometry"/>
                </mxCell>
                <mxCell id="180" value="" style="endArrow=none;html=1;exitX=1;exitY=0;exitDx=0;exitDy=0;entryX=0.5;entryY=1;entryDx=0;entryDy=0;" parent="1" source="177" edge="1">
                    <mxGeometry width="50" height="50" relative="1" as="geometry">
                        <mxPoint x="-165" y="590" as="sourcePoint"/>
                        <mxPoint x="-85" y="470" as="targetPoint"/>
                    </mxGeometry>
                </mxCell>
                <mxCell id="181" value="" style="endArrow=none;html=1;exitX=0.5;exitY=0;exitDx=0;exitDy=0;" parent="1" source="178" edge="1">
                    <mxGeometry width="50" height="50" relative="1" as="geometry">
                        <mxPoint x="-128" y="507" as="sourcePoint"/>
                        <mxPoint x="-85" y="470" as="targetPoint"/>
                    </mxGeometry>
                </mxCell>
                <mxCell id="182" value="" style="endArrow=none;html=1;exitX=0;exitY=0;exitDx=0;exitDy=0;entryX=0.5;entryY=1;entryDx=0;entryDy=0;" parent="1" source="179" edge="1">
                    <mxGeometry width="50" height="50" relative="1" as="geometry">
                        <mxPoint x="-80" y="530" as="sourcePoint"/>
                        <mxPoint x="-85" y="470" as="targetPoint"/>
                    </mxGeometry>
                </mxCell>
                <mxCell id="188" value="" style="endArrow=none;html=1;entryX=0.5;entryY=1;entryDx=0;entryDy=0;exitX=0.5;exitY=0;exitDx=0;exitDy=0;" parent="1" source="14" target="73" edge="1">
                    <mxGeometry width="50" height="50" relative="1" as="geometry">
                        <mxPoint y="430" as="sourcePoint"/>
                        <mxPoint x="50" y="380" as="targetPoint"/>
                    </mxGeometry>
                </mxCell>
                <mxCell id="189" value="" style="endArrow=none;html=1;exitX=0.5;exitY=0;exitDx=0;exitDy=0;entryX=0.5;entryY=1;entryDx=0;entryDy=0;" parent="1" source="10" target="71" edge="1">
                    <mxGeometry width="50" height="50" relative="1" as="geometry">
                        <mxPoint x="-50" y="430" as="sourcePoint"/>
                        <mxPoint y="380" as="targetPoint"/>
                    </mxGeometry>
                </mxCell>
                <mxCell id="190" value="" style="group" parent="1" vertex="1" connectable="0">
                    <mxGeometry x="-220" y="340" width="110" height="60" as="geometry"/>
                </mxCell>
                <mxCell id="191" value="" style="ellipse;whiteSpace=wrap;html=1;" parent="190" vertex="1">
                    <mxGeometry width="110" height="60" as="geometry"/>
                </mxCell>
                <mxCell id="192" value="&lt;font&gt;Lines&lt;/font&gt;" style="ellipse;whiteSpace=wrap;html=1;fontSize=14;" parent="190" vertex="1">
                    <mxGeometry x="10" y="5.000000000000227" width="90" height="50" as="geometry"/>
                </mxCell>
                <mxCell id="193" value="" style="endArrow=none;html=1;exitX=0.5;exitY=0;exitDx=0;exitDy=0;entryX=0;entryY=0.5;entryDx=0;entryDy=0;" parent="1" source="191" target="71" edge="1">
                    <mxGeometry width="50" height="50" relative="1" as="geometry">
                        <mxPoint x="135" y="340" as="sourcePoint"/>
                        <mxPoint x="160" y="310" as="targetPoint"/>
                        <Array as="points">
                            <mxPoint x="-160" y="330"/>
                        </Array>
                    </mxGeometry>
                </mxCell>
                <mxCell id="194" value="&lt;font&gt;startDate&lt;/font&gt;" style="ellipse;whiteSpace=wrap;html=1;fontSize=14;" parent="1" vertex="1">
                    <mxGeometry x="-300" y="388.0000000000002" width="90" height="50" as="geometry"/>
                </mxCell>
                <mxCell id="195" value="&lt;font&gt;endDate&lt;/font&gt;" style="ellipse;whiteSpace=wrap;html=1;fontSize=14;" parent="1" vertex="1">
                    <mxGeometry x="-300" y="442.0000000000002" width="90" height="50" as="geometry"/>
                </mxCell>
                <mxCell id="196" value="" style="endArrow=none;html=1;exitX=1;exitY=0.5;exitDx=0;exitDy=0;entryX=0;entryY=0.5;entryDx=0;entryDy=0;" parent="1" source="194" target="10" edge="1">
                    <mxGeometry width="50" height="50" relative="1" as="geometry">
                        <mxPoint x="-170" y="420" as="sourcePoint"/>
                        <mxPoint x="-120" y="370" as="targetPoint"/>
                    </mxGeometry>
                </mxCell>
                <mxCell id="197" value="" style="endArrow=none;html=1;exitX=1;exitY=0.5;exitDx=0;exitDy=0;entryX=0;entryY=0.5;entryDx=0;entryDy=0;" parent="1" source="195" target="10" edge="1">
                    <mxGeometry width="50" height="50" relative="1" as="geometry">
                        <mxPoint x="-200" y="425" as="sourcePoint"/>
                        <mxPoint x="-160" y="450" as="targetPoint"/>
                    </mxGeometry>
                </mxCell>
                <mxCell id="198" value="" style="rhombus;whiteSpace=wrap;html=1;" parent="1" vertex="1">
                    <mxGeometry x="-570" y="-5" width="10" height="10" as="geometry"/>
                </mxCell>
                <mxCell id="199" value="" style="rhombus;whiteSpace=wrap;html=1;" parent="1" vertex="1">
                    <mxGeometry x="560" y="-5" width="10" height="10" as="geometry"/>
                </mxCell>
                <mxCell id="200" value="" style="rhombus;whiteSpace=wrap;html=1;" parent="1" vertex="1">
                    <mxGeometry x="-5" y="-370" width="10" height="10" as="geometry"/>
                </mxCell>
                <mxCell id="201" value="" style="rhombus;whiteSpace=wrap;html=1;" parent="1" vertex="1">
                    <mxGeometry x="-5" y="640" width="10" height="10" as="geometry"/>
                </mxCell>
                <mxCell id="Ez06yTSGNXhfvvu_Z-6i-201" value="file" style="ellipse;whiteSpace=wrap;html=1;fontSize=14;" parent="1" vertex="1">
                    <mxGeometry x="410" y="5.000000000000227" width="90" height="50" as="geometry"/>
                </mxCell>
                <mxCell id="Ez06yTSGNXhfvvu_Z-6i-202" value="" style="endArrow=none;html=1;exitX=1;exitY=0.5;exitDx=0;exitDy=0;entryX=0;entryY=0.5;entryDx=0;entryDy=0;" parent="1" source="6" target="Ez06yTSGNXhfvvu_Z-6i-201" edge="1">
                    <mxGeometry width="50" height="50" relative="1" as="geometry">
                        <mxPoint x="390" y="10" as="sourcePoint"/>
                        <mxPoint x="420" y="-15" as="targetPoint"/>
                    </mxGeometry>
                </mxCell>
                <mxCell id="EprDfboHzF56v1chbXrL-201" value="" style="endArrow=none;html=1;entryX=0;entryY=0.5;entryDx=0;entryDy=0;" parent="1" source="7" target="70" edge="1">
                    <mxGeometry width="50" height="50" relative="1" as="geometry">
                        <mxPoint x="-140" y="120" as="sourcePoint"/>
                        <mxPoint x="-90" y="70" as="targetPoint"/>
                    </mxGeometry>
                </mxCell>
                <mxCell id="EprDfboHzF56v1chbXrL-202" value="&lt;font style=&quot;font-size: 24px;&quot;&gt;Degree&lt;/font&gt;" style="rounded=1;whiteSpace=wrap;html=1;" parent="1" vertex="1">
                    <mxGeometry x="-220" y="186" width="160" height="60" as="geometry"/>
                </mxCell>
                <mxCell id="EprDfboHzF56v1chbXrL-203" value="title" style="ellipse;whiteSpace=wrap;html=1;fontSize=14;" parent="1" vertex="1">
                    <mxGeometry x="-185" y="260.0000000000002" width="90" height="50" as="geometry"/>
                </mxCell>
                <mxCell id="EprDfboHzF56v1chbXrL-204" value="" style="endArrow=none;html=1;exitX=0.5;exitY=0;exitDx=0;exitDy=0;entryX=0.5;entryY=1;entryDx=0;entryDy=0;" parent="1" source="EprDfboHzF56v1chbXrL-203" target="EprDfboHzF56v1chbXrL-202" edge="1">
                    <mxGeometry width="50" height="50" relative="1" as="geometry">
                        <mxPoint x="-160" y="320" as="sourcePoint"/>
                        <mxPoint x="-110" y="270" as="targetPoint"/>
                    </mxGeometry>
                </mxCell>
                <mxCell id="EprDfboHzF56v1chbXrL-205" value="grade" style="ellipse;whiteSpace=wrap;html=1;fontSize=14;" parent="1" vertex="1">
                    <mxGeometry x="-185" y="120.00000000000023" width="90" height="50" as="geometry"/>
                </mxCell>
                <mxCell id="EprDfboHzF56v1chbXrL-206" value="" style="endArrow=none;html=1;exitX=0.5;exitY=0;exitDx=0;exitDy=0;entryX=0.5;entryY=1;entryDx=0;entryDy=0;" parent="1" source="EprDfboHzF56v1chbXrL-202" target="EprDfboHzF56v1chbXrL-205" edge="1">
                    <mxGeometry width="50" height="50" relative="1" as="geometry">
                        <mxPoint x="-160" y="295" as="sourcePoint"/>
                        <mxPoint x="-130" y="256" as="targetPoint"/>
                    </mxGeometry>
                </mxCell>
                <mxCell id="EprDfboHzF56v1chbXrL-207" value="" style="endArrow=none;html=1;exitX=0.5;exitY=0;exitDx=0;exitDy=0;entryX=0.5;entryY=1;entryDx=0;entryDy=0;" parent="1" source="EprDfboHzF56v1chbXrL-202" target="70" edge="1">
                    <mxGeometry width="50" height="50" relative="1" as="geometry">
                        <mxPoint x="-180" y="140" as="sourcePoint"/>
                        <mxPoint x="-130" y="90" as="targetPoint"/>
                        <Array as="points">
                            <mxPoint x="-80" y="160"/>
                        </Array>
                    </mxGeometry>
                </mxCell>
                <mxCell id="EprDfboHzF56v1chbXrL-208" value="N" style="text;html=1;align=center;verticalAlign=middle;whiteSpace=wrap;rounded=0;" parent="1" vertex="1">
                    <mxGeometry x="-110" y="164" width="20" height="30" as="geometry"/>
                </mxCell>
                <mxCell id="EprDfboHzF56v1chbXrL-211" value="" style="group" parent="1" vertex="1" connectable="0">
                    <mxGeometry x="-80" y="130" width="70" height="40" as="geometry"/>
                </mxCell>
                <mxCell id="EprDfboHzF56v1chbXrL-212" value="" style="ellipse;whiteSpace=wrap;html=1;" parent="EprDfboHzF56v1chbXrL-211" vertex="1">
                    <mxGeometry width="70" height="40" as="geometry"/>
                </mxCell>
                <mxCell id="EprDfboHzF56v1chbXrL-213" value="&lt;font&gt;Lines&lt;/font&gt;" style="ellipse;whiteSpace=wrap;html=1;fontSize=14;" parent="EprDfboHzF56v1chbXrL-211" vertex="1">
                    <mxGeometry x="6.363636363636363" y="3.333333333333485" width="57.27272727272727" height="33.333333333333336" as="geometry"/>
                </mxCell>
                <mxCell id="EprDfboHzF56v1chbXrL-214" value="" style="endArrow=none;html=1;entryX=1;entryY=0.5;entryDx=0;entryDy=0;exitX=0.5;exitY=0;exitDx=0;exitDy=0;" parent="1" source="EprDfboHzF56v1chbXrL-212" target="70" edge="1">
                    <mxGeometry width="50" height="50" relative="1" as="geometry">
                        <mxPoint x="-120" y="270" as="sourcePoint"/>
                        <mxPoint x="-70" y="220" as="targetPoint"/>
                    </mxGeometry>
                </mxCell>
            </root>
        </mxGraphModel>
    </diagram>
    <diagram id="fB8-E97yKsTObfPjAres" name="Somewhat Crow’s Foot ER">
        <mxGraphModel dx="1875" dy="2083" grid="1" gridSize="10" guides="1" tooltips="1" connect="1" arrows="1" fold="1" page="1" pageScale="1" pageWidth="850" pageHeight="1100" math="0" shadow="0">
            <root>
                <mxCell id="0"/>
                <mxCell id="1" parent="0"/>
                <mxCell id="viuHflEAlFOghV-kSQ9j-2" value="User" style="swimlane;fontStyle=0;childLayout=stackLayout;horizontal=1;startSize=30;horizontalStack=0;resizeParent=1;resizeParentMax=0;resizeLast=0;collapsible=1;marginBottom=0;whiteSpace=wrap;html=1;" parent="1" vertex="1">
                    <mxGeometry x="-330" y="-100" width="140" height="210" as="geometry"/>
                </mxCell>
                <mxCell id="viuHflEAlFOghV-kSQ9j-3" value="&lt;u&gt;userID&lt;/u&gt;" style="text;strokeColor=none;fillColor=none;align=center;verticalAlign=middle;spacingLeft=4;spacingRight=4;overflow=hidden;points=[[0,0.5],[1,0.5]];portConstraint=eastwest;rotatable=0;whiteSpace=wrap;html=1;" parent="viuHflEAlFOghV-kSQ9j-2" vertex="1">
                    <mxGeometry y="30" width="140" height="30" as="geometry"/>
                </mxCell>
                <mxCell id="viuHflEAlFOghV-kSQ9j-4" value="username" style="text;strokeColor=none;fillColor=none;align=center;verticalAlign=middle;spacingLeft=4;spacingRight=4;overflow=hidden;points=[[0,0.5],[1,0.5]];portConstraint=eastwest;rotatable=0;whiteSpace=wrap;html=1;" parent="viuHflEAlFOghV-kSQ9j-2" vertex="1">
                    <mxGeometry y="60" width="140" height="30" as="geometry"/>
                </mxCell>
                <mxCell id="viuHflEAlFOghV-kSQ9j-5" value="avatar" style="text;strokeColor=none;fillColor=none;align=center;verticalAlign=middle;spacingLeft=4;spacingRight=4;overflow=hidden;points=[[0,0.5],[1,0.5]];portConstraint=eastwest;rotatable=0;whiteSpace=wrap;html=1;" parent="viuHflEAlFOghV-kSQ9j-2" vertex="1">
                    <mxGeometry y="90" width="140" height="30" as="geometry"/>
                </mxCell>
                <mxCell id="yfPpmvt7rwhhCtc8oxhg-1" value="tier" style="text;strokeColor=none;fillColor=none;align=center;verticalAlign=middle;spacingLeft=4;spacingRight=4;overflow=hidden;points=[[0,0.5],[1,0.5]];portConstraint=eastwest;rotatable=0;whiteSpace=wrap;html=1;" parent="viuHflEAlFOghV-kSQ9j-2" vertex="1">
                    <mxGeometry y="120" width="140" height="30" as="geometry"/>
                </mxCell>
                <mxCell id="n-R8Wu0eK0EDk9jY9Tdk-1" value="status" style="text;strokeColor=none;fillColor=none;align=center;verticalAlign=middle;spacingLeft=4;spacingRight=4;overflow=hidden;points=[[0,0.5],[1,0.5]];portConstraint=eastwest;rotatable=0;whiteSpace=wrap;html=1;" parent="viuHflEAlFOghV-kSQ9j-2" vertex="1">
                    <mxGeometry y="150" width="140" height="30" as="geometry"/>
                </mxCell>
                <mxCell id="ZMBdBBCb0TVt_ZVofDPM-8" value="prefrences" style="text;strokeColor=none;fillColor=none;align=center;verticalAlign=middle;spacingLeft=4;spacingRight=4;overflow=hidden;points=[[0,0.5],[1,0.5]];portConstraint=eastwest;rotatable=0;whiteSpace=wrap;html=1;" parent="viuHflEAlFOghV-kSQ9j-2" vertex="1">
                    <mxGeometry y="180" width="140" height="30" as="geometry"/>
                </mxCell>
                <mxCell id="n-R8Wu0eK0EDk9jY9Tdk-2" value="Profile" style="swimlane;fontStyle=0;childLayout=stackLayout;horizontal=1;startSize=30;horizontalStack=0;resizeParent=1;resizeParentMax=0;resizeLast=0;collapsible=1;marginBottom=0;whiteSpace=wrap;html=1;" parent="1" vertex="1">
                    <mxGeometry x="-70" y="-75" width="140" height="150" as="geometry"/>
                </mxCell>
                <mxCell id="n-R8Wu0eK0EDk9jY9Tdk-3" value="&lt;u&gt;profileID&lt;/u&gt;" style="text;strokeColor=none;fillColor=none;align=center;verticalAlign=middle;spacingLeft=4;spacingRight=4;overflow=hidden;points=[[0,0.5],[1,0.5]];portConstraint=eastwest;rotatable=0;whiteSpace=wrap;html=1;" parent="n-R8Wu0eK0EDk9jY9Tdk-2" vertex="1">
                    <mxGeometry y="30" width="140" height="30" as="geometry"/>
                </mxCell>
                <mxCell id="n-R8Wu0eK0EDk9jY9Tdk-4" value="fullName" style="text;strokeColor=none;fillColor=none;align=center;verticalAlign=middle;spacingLeft=4;spacingRight=4;overflow=hidden;points=[[0,0.5],[1,0.5]];portConstraint=eastwest;rotatable=0;whiteSpace=wrap;html=1;" parent="n-R8Wu0eK0EDk9jY9Tdk-2" vertex="1">
                    <mxGeometry y="60" width="140" height="30" as="geometry"/>
                </mxCell>
                <mxCell id="n-R8Wu0eK0EDk9jY9Tdk-5" value="avatar" style="text;strokeColor=none;fillColor=none;align=center;verticalAlign=middle;spacingLeft=4;spacingRight=4;overflow=hidden;points=[[0,0.5],[1,0.5]];portConstraint=eastwest;rotatable=0;whiteSpace=wrap;html=1;" parent="n-R8Wu0eK0EDk9jY9Tdk-2" vertex="1">
                    <mxGeometry y="90" width="140" height="30" as="geometry"/>
                </mxCell>
                <mxCell id="n-R8Wu0eK0EDk9jY9Tdk-6" value="contactInfo" style="text;strokeColor=none;fillColor=none;align=center;verticalAlign=middle;spacingLeft=4;spacingRight=4;overflow=hidden;points=[[0,0.5],[1,0.5]];portConstraint=eastwest;rotatable=0;whiteSpace=wrap;html=1;" parent="n-R8Wu0eK0EDk9jY9Tdk-2" vertex="1">
                    <mxGeometry y="120" width="140" height="30" as="geometry"/>
                </mxCell>
                <mxCell id="n-R8Wu0eK0EDk9jY9Tdk-9" value="Skill" style="swimlane;fontStyle=0;childLayout=stackLayout;horizontal=1;startSize=30;horizontalStack=0;resizeParent=1;resizeParentMax=0;resizeLast=0;collapsible=1;marginBottom=0;whiteSpace=wrap;html=1;" parent="1" vertex="1">
                    <mxGeometry x="105" y="160" width="140" height="60" as="geometry"/>
                </mxCell>
                <mxCell id="n-R8Wu0eK0EDk9jY9Tdk-10" value="&lt;u&gt;name&lt;/u&gt;" style="text;strokeColor=none;fillColor=none;align=center;verticalAlign=middle;spacingLeft=4;spacingRight=4;overflow=hidden;points=[[0,0.5],[1,0.5]];portConstraint=eastwest;rotatable=0;whiteSpace=wrap;html=1;" parent="n-R8Wu0eK0EDk9jY9Tdk-9" vertex="1">
                    <mxGeometry y="30" width="140" height="30" as="geometry"/>
                </mxCell>
                <mxCell id="siWWlLIoGMHcFUzlSiL2-1" value="Resume" style="swimlane;fontStyle=0;childLayout=stackLayout;horizontal=1;startSize=30;horizontalStack=0;resizeParent=1;resizeParentMax=0;resizeLast=0;collapsible=1;marginBottom=0;whiteSpace=wrap;html=1;" parent="1" vertex="1">
                    <mxGeometry x="210" y="-55" width="140" height="120" as="geometry"/>
                </mxCell>
                <mxCell id="siWWlLIoGMHcFUzlSiL2-2" value="&lt;u&gt;resumeID&lt;/u&gt;" style="text;strokeColor=none;fillColor=none;align=center;verticalAlign=middle;spacingLeft=4;spacingRight=4;overflow=hidden;points=[[0,0.5],[1,0.5]];portConstraint=eastwest;rotatable=0;whiteSpace=wrap;html=1;" parent="siWWlLIoGMHcFUzlSiL2-1" vertex="1">
                    <mxGeometry y="30" width="140" height="30" as="geometry"/>
                </mxCell>
                <mxCell id="siWWlLIoGMHcFUzlSiL2-3" value="title" style="text;strokeColor=none;fillColor=none;align=center;verticalAlign=middle;spacingLeft=4;spacingRight=4;overflow=hidden;points=[[0,0.5],[1,0.5]];portConstraint=eastwest;rotatable=0;whiteSpace=wrap;html=1;" parent="siWWlLIoGMHcFUzlSiL2-1" vertex="1">
                    <mxGeometry y="60" width="140" height="30" as="geometry"/>
                </mxCell>
                <mxCell id="71pW-bURPRTjtUzWfuSU-7" value="fileURL" style="text;strokeColor=none;fillColor=none;align=center;verticalAlign=middle;spacingLeft=4;spacingRight=4;overflow=hidden;points=[[0,0.5],[1,0.5]];portConstraint=eastwest;rotatable=0;whiteSpace=wrap;html=1;" parent="siWWlLIoGMHcFUzlSiL2-1" vertex="1">
                    <mxGeometry y="90" width="140" height="30" as="geometry"/>
                </mxCell>
                <mxCell id="ZMBdBBCb0TVt_ZVofDPM-1" value="OauthProvider" style="swimlane;fontStyle=0;childLayout=stackLayout;horizontal=1;startSize=30;horizontalStack=0;resizeParent=1;resizeParentMax=0;resizeLast=0;collapsible=1;marginBottom=0;whiteSpace=wrap;html=1;" parent="1" vertex="1">
                    <mxGeometry x="-330" y="-290" width="140" height="60" as="geometry"/>
                </mxCell>
                <mxCell id="ZMBdBBCb0TVt_ZVofDPM-2" value="&lt;u&gt;name&lt;/u&gt;" style="text;strokeColor=none;fillColor=none;align=center;verticalAlign=middle;spacingLeft=4;spacingRight=4;overflow=hidden;points=[[0,0.5],[1,0.5]];portConstraint=eastwest;rotatable=0;whiteSpace=wrap;html=1;" parent="ZMBdBBCb0TVt_ZVofDPM-1" vertex="1">
                    <mxGeometry y="30" width="140" height="30" as="geometry"/>
                </mxCell>
                <mxCell id="nX0PzmXOw6j2l4-ewHw_-1" value="Education" style="swimlane;fontStyle=0;childLayout=stackLayout;horizontal=1;startSize=30;horizontalStack=0;resizeParent=1;resizeParentMax=0;resizeLast=0;collapsible=1;marginBottom=0;whiteSpace=wrap;html=1;" parent="1" vertex="1">
                    <mxGeometry x="-190" y="170" width="140" height="60" as="geometry"/>
                </mxCell>
                <mxCell id="nX0PzmXOw6j2l4-ewHw_-2" value="&lt;u&gt;association&lt;/u&gt;" style="text;strokeColor=none;fillColor=none;align=center;verticalAlign=middle;spacingLeft=4;spacingRight=4;overflow=hidden;points=[[0,0.5],[1,0.5]];portConstraint=eastwest;rotatable=0;whiteSpace=wrap;html=1;" parent="nX0PzmXOw6j2l4-ewHw_-1" vertex="1">
                    <mxGeometry y="30" width="140" height="30" as="geometry"/>
                </mxCell>
                <mxCell id="71pW-bURPRTjtUzWfuSU-4" value="Degree" style="swimlane;fontStyle=0;childLayout=stackLayout;horizontal=1;startSize=30;horizontalStack=0;resizeParent=1;resizeParentMax=0;resizeLast=0;collapsible=1;marginBottom=0;whiteSpace=wrap;html=1;" parent="1" vertex="1">
                    <mxGeometry x="-190" y="310" width="140" height="60" as="geometry"/>
                </mxCell>
                <mxCell id="71pW-bURPRTjtUzWfuSU-5" value="&lt;u&gt;title&lt;/u&gt;" style="text;strokeColor=none;fillColor=none;align=center;verticalAlign=middle;spacingLeft=4;spacingRight=4;overflow=hidden;points=[[0,0.5],[1,0.5]];portConstraint=eastwest;rotatable=0;whiteSpace=wrap;html=1;" parent="71pW-bURPRTjtUzWfuSU-4" vertex="1">
                    <mxGeometry y="30" width="140" height="30" as="geometry"/>
                </mxCell>
                <mxCell id="DmA3OzvB5sAEfD2TgtEb-1" value="Experience" style="swimlane;fontStyle=0;childLayout=stackLayout;horizontal=1;startSize=30;horizontalStack=0;resizeParent=1;resizeParentMax=0;resizeLast=0;collapsible=1;marginBottom=0;whiteSpace=wrap;html=1;" parent="1" vertex="1">
                    <mxGeometry y="360" width="140" height="90" as="geometry"/>
                </mxCell>
                <mxCell id="DmA3OzvB5sAEfD2TgtEb-2" value="&lt;u&gt;title&lt;/u&gt;" style="text;strokeColor=none;fillColor=none;align=center;verticalAlign=middle;spacingLeft=4;spacingRight=4;overflow=hidden;points=[[0,0.5],[1,0.5]];portConstraint=eastwest;rotatable=0;whiteSpace=wrap;html=1;" parent="DmA3OzvB5sAEfD2TgtEb-1" vertex="1">
                    <mxGeometry y="30" width="140" height="30" as="geometry"/>
                </mxCell>
                <mxCell id="DmA3OzvB5sAEfD2TgtEb-3" value="&lt;u&gt;type&lt;/u&gt;" style="text;strokeColor=none;fillColor=none;align=center;verticalAlign=middle;spacingLeft=4;spacingRight=4;overflow=hidden;points=[[0,0.5],[1,0.5]];portConstraint=eastwest;rotatable=0;whiteSpace=wrap;html=1;" parent="DmA3OzvB5sAEfD2TgtEb-1" vertex="1">
                    <mxGeometry y="60" width="140" height="30" as="geometry"/>
                </mxCell>
                <mxCell id="lbyapU0yViWHDB5D--aP-1" value="Hobby" style="swimlane;fontStyle=0;childLayout=stackLayout;horizontal=1;startSize=30;horizontalStack=0;resizeParent=1;resizeParentMax=0;resizeLast=0;collapsible=1;marginBottom=0;whiteSpace=wrap;html=1;" parent="1" vertex="1">
                    <mxGeometry x="210" y="360" width="140" height="60" as="geometry"/>
                </mxCell>
                <mxCell id="lbyapU0yViWHDB5D--aP-2" value="&lt;u&gt;Name&lt;/u&gt;" style="text;strokeColor=none;fillColor=none;align=center;verticalAlign=middle;spacingLeft=4;spacingRight=4;overflow=hidden;points=[[0,0.5],[1,0.5]];portConstraint=eastwest;rotatable=0;whiteSpace=wrap;html=1;" parent="lbyapU0yViWHDB5D--aP-1" vertex="1">
                    <mxGeometry y="30" width="140" height="30" as="geometry"/>
                </mxCell>
                <mxCell id="gGTvBcMHWj7LD6NI-nhK-1" value="Additional Section" style="swimlane;fontStyle=0;childLayout=stackLayout;horizontal=1;startSize=30;horizontalStack=0;resizeParent=1;resizeParentMax=0;resizeLast=0;collapsible=1;marginBottom=0;whiteSpace=wrap;html=1;" parent="1" vertex="1">
                    <mxGeometry x="210" y="-290" width="140" height="120" as="geometry"/>
                </mxCell>
                <mxCell id="gGTvBcMHWj7LD6NI-nhK-2" value="&lt;u&gt;sectionID&lt;/u&gt;" style="text;strokeColor=none;fillColor=none;align=center;verticalAlign=middle;spacingLeft=4;spacingRight=4;overflow=hidden;points=[[0,0.5],[1,0.5]];portConstraint=eastwest;rotatable=0;whiteSpace=wrap;html=1;" parent="gGTvBcMHWj7LD6NI-nhK-1" vertex="1">
                    <mxGeometry y="30" width="140" height="30" as="geometry"/>
                </mxCell>
                <mxCell id="gGTvBcMHWj7LD6NI-nhK-3" value="title" style="text;strokeColor=none;fillColor=none;align=center;verticalAlign=middle;spacingLeft=4;spacingRight=4;overflow=hidden;points=[[0,0.5],[1,0.5]];portConstraint=eastwest;rotatable=0;whiteSpace=wrap;html=1;" parent="gGTvBcMHWj7LD6NI-nhK-1" vertex="1">
                    <mxGeometry y="60" width="140" height="30" as="geometry"/>
                </mxCell>
                <mxCell id="gGTvBcMHWj7LD6NI-nhK-4" value="content" style="text;strokeColor=none;fillColor=none;align=center;verticalAlign=middle;spacingLeft=4;spacingRight=4;overflow=hidden;points=[[0,0.5],[1,0.5]];portConstraint=eastwest;rotatable=0;whiteSpace=wrap;html=1;" parent="gGTvBcMHWj7LD6NI-nhK-1" vertex="1">
                    <mxGeometry y="90" width="140" height="30" as="geometry"/>
                </mxCell>
                <mxCell id="zj-QgvtORMuE42ysIZ6P-1" value="Links" style="swimlane;fontStyle=0;childLayout=stackLayout;horizontal=1;startSize=30;horizontalStack=0;resizeParent=1;resizeParentMax=0;resizeLast=0;collapsible=1;marginBottom=0;whiteSpace=wrap;html=1;" parent="1" vertex="1">
                    <mxGeometry x="-70" y="-290" width="140" height="120" as="geometry"/>
                </mxCell>
                <mxCell id="zj-QgvtORMuE42ysIZ6P-2" value="&lt;u&gt;name&lt;/u&gt;" style="text;strokeColor=none;fillColor=none;align=center;verticalAlign=middle;spacingLeft=4;spacingRight=4;overflow=hidden;points=[[0,0.5],[1,0.5]];portConstraint=eastwest;rotatable=0;whiteSpace=wrap;html=1;" parent="zj-QgvtORMuE42ysIZ6P-1" vertex="1">
                    <mxGeometry y="30" width="140" height="30" as="geometry"/>
                </mxCell>
                <mxCell id="zj-QgvtORMuE42ysIZ6P-3" value="homePage" style="text;strokeColor=none;fillColor=none;align=center;verticalAlign=middle;spacingLeft=4;spacingRight=4;overflow=hidden;points=[[0,0.5],[1,0.5]];portConstraint=eastwest;rotatable=0;whiteSpace=wrap;html=1;" parent="zj-QgvtORMuE42ysIZ6P-1" vertex="1">
                    <mxGeometry y="60" width="140" height="30" as="geometry"/>
                </mxCell>
                <mxCell id="zj-QgvtORMuE42ysIZ6P-4" value="iconURL" style="text;strokeColor=none;fillColor=none;align=center;verticalAlign=middle;spacingLeft=4;spacingRight=4;overflow=hidden;points=[[0,0.5],[1,0.5]];portConstraint=eastwest;rotatable=0;whiteSpace=wrap;html=1;" parent="zj-QgvtORMuE42ysIZ6P-1" vertex="1">
                    <mxGeometry y="90" width="140" height="30" as="geometry"/>
                </mxCell>
                <mxCell id="NacHhcsnJlO7kl0KiTMQ-1" value="Uses" style="rhombus;whiteSpace=wrap;html=1;" vertex="1" parent="1">
                    <mxGeometry x="-300" y="-210" width="80" height="80" as="geometry"/>
                </mxCell>
                <mxCell id="23a0lV-3cMxnBIT7B12T-1" value="" style="endArrow=none;html=1;exitX=0.5;exitY=0;exitDx=0;exitDy=0;entryX=0.5;entryY=1;entryDx=0;entryDy=0;" edge="1" parent="1" source="viuHflEAlFOghV-kSQ9j-2" target="NacHhcsnJlO7kl0KiTMQ-1">
                    <mxGeometry width="50" height="50" relative="1" as="geometry">
                        <mxPoint x="-50" y="-10" as="sourcePoint"/>
                        <mxPoint y="-60" as="targetPoint"/>
                    </mxGeometry>
                </mxCell>
                <mxCell id="23a0lV-3cMxnBIT7B12T-2" value="N" style="text;html=1;align=center;verticalAlign=middle;whiteSpace=wrap;rounded=0;" vertex="1" parent="1">
                    <mxGeometry x="-260" y="-120" width="20" height="20" as="geometry"/>
                </mxCell>
                <mxCell id="23a0lV-3cMxnBIT7B12T-3" value="" style="endArrow=none;html=1;entryX=0.5;entryY=1.017;entryDx=0;entryDy=0;exitX=0.5;exitY=0;exitDx=0;exitDy=0;entryPerimeter=0;" edge="1" parent="1" source="NacHhcsnJlO7kl0KiTMQ-1" target="ZMBdBBCb0TVt_ZVofDPM-2">
                    <mxGeometry width="50" height="50" relative="1" as="geometry">
                        <mxPoint x="-310" y="-170" as="sourcePoint"/>
                        <mxPoint x="-260" y="-220" as="targetPoint"/>
                    </mxGeometry>
                </mxCell>
                <mxCell id="23a0lV-3cMxnBIT7B12T-4" value="M" style="text;html=1;align=center;verticalAlign=middle;whiteSpace=wrap;rounded=0;" vertex="1" parent="1">
                    <mxGeometry x="-260" y="-230" width="20" height="20" as="geometry"/>
                </mxCell>
                <mxCell id="t6Af2W-B8vtnTNopVINd-1" value="refreshToken" style="ellipse;whiteSpace=wrap;html=1;fontSize=14;" vertex="1" parent="1">
                    <mxGeometry x="-435" y="-159.99999999999977" width="90" height="50" as="geometry"/>
                </mxCell>
                <mxCell id="t6Af2W-B8vtnTNopVINd-2" value="" style="endArrow=none;html=1;exitX=1;exitY=0;exitDx=0;exitDy=0;entryX=0;entryY=0.5;entryDx=0;entryDy=0;" edge="1" parent="1" source="t6Af2W-B8vtnTNopVINd-1" target="NacHhcsnJlO7kl0KiTMQ-1">
                    <mxGeometry width="50" height="50" relative="1" as="geometry">
                        <mxPoint x="-365" y="14" as="sourcePoint"/>
                        <mxPoint x="-320" y="-176" as="targetPoint"/>
                    </mxGeometry>
                </mxCell>
                <mxCell id="t6Af2W-B8vtnTNopVINd-3" value="accessToken" style="ellipse;whiteSpace=wrap;html=1;fontSize=14;fontStyle=0" vertex="1" parent="1">
                    <mxGeometry x="-435" y="-229.99999999999977" width="90" height="50" as="geometry"/>
                </mxCell>
                <mxCell id="t6Af2W-B8vtnTNopVINd-4" value="" style="endArrow=none;html=1;entryX=0;entryY=0.5;entryDx=0;entryDy=0;exitX=1;exitY=1;exitDx=0;exitDy=0;" edge="1" parent="1" source="t6Af2W-B8vtnTNopVINd-3" target="NacHhcsnJlO7kl0KiTMQ-1">
                    <mxGeometry width="50" height="50" relative="1" as="geometry">
                        <mxPoint x="-300" y="34" as="sourcePoint"/>
                        <mxPoint x="-320" y="-176" as="targetPoint"/>
                    </mxGeometry>
                </mxCell>
                <mxCell id="mTzVz9kJFB73I1MFibnt-1" value="Accesses" style="rhombus;whiteSpace=wrap;html=1;" vertex="1" parent="1">
                    <mxGeometry x="-170" y="-40" width="80" height="80" as="geometry"/>
                </mxCell>
                <mxCell id="mTzVz9kJFB73I1MFibnt-2" value="" style="endArrow=none;html=1;exitX=0.5;exitY=0;exitDx=0;exitDy=0;entryX=0.5;entryY=0;entryDx=0;entryDy=0;" edge="1" parent="1" source="viuHflEAlFOghV-kSQ9j-2" target="mTzVz9kJFB73I1MFibnt-1">
                    <mxGeometry width="50" height="50" relative="1" as="geometry">
                        <mxPoint x="-150" y="-80" as="sourcePoint"/>
                        <mxPoint x="-100" y="-130" as="targetPoint"/>
                        <Array as="points">
                            <mxPoint x="-260" y="-120"/>
                            <mxPoint x="-130" y="-120"/>
                        </Array>
                    </mxGeometry>
                </mxCell>
                <mxCell id="mTzVz9kJFB73I1MFibnt-3" value="" style="endArrow=none;html=1;exitX=1;exitY=0.5;exitDx=0;exitDy=0;entryX=0;entryY=0.5;entryDx=0;entryDy=0;" edge="1" parent="1" source="mTzVz9kJFB73I1MFibnt-1" target="n-R8Wu0eK0EDk9jY9Tdk-4">
                    <mxGeometry width="50" height="50" relative="1" as="geometry">
                        <mxPoint x="-170" y="110" as="sourcePoint"/>
                        <mxPoint x="-120" y="60" as="targetPoint"/>
                    </mxGeometry>
                </mxCell>
                <mxCell id="mTzVz9kJFB73I1MFibnt-4" value="M" style="text;html=1;align=center;verticalAlign=middle;whiteSpace=wrap;rounded=0;" vertex="1" parent="1">
                    <mxGeometry x="-90" y="-20" width="20" height="20" as="geometry"/>
                </mxCell>
                <mxCell id="7qxgAwWndftugxcMx5QJ-1" value="role" style="ellipse;whiteSpace=wrap;html=1;fontSize=14;" vertex="1" parent="1">
                    <mxGeometry x="-165" y="50" width="70" height="40" as="geometry"/>
                </mxCell>
                <mxCell id="7qxgAwWndftugxcMx5QJ-2" value="" style="endArrow=none;html=1;exitX=0.5;exitY=0;exitDx=0;exitDy=0;entryX=0.5;entryY=1;entryDx=0;entryDy=0;" edge="1" parent="1" source="7qxgAwWndftugxcMx5QJ-1" target="mTzVz9kJFB73I1MFibnt-1">
                    <mxGeometry width="50" height="50" relative="1" as="geometry">
                        <mxPoint x="-60" y="150" as="sourcePoint"/>
                        <mxPoint x="-10" y="100" as="targetPoint"/>
                    </mxGeometry>
                </mxCell>
                <mxCell id="ozT08auzfmHqJbHIW9_--1" value="Credits" style="rhombus;whiteSpace=wrap;html=1;" vertex="1" parent="1">
                    <mxGeometry x="-40" y="110" width="80" height="80" as="geometry"/>
                </mxCell>
                <mxCell id="EWJYcGEz_6eXrQEpiyl9-1" value="" style="endArrow=none;html=1;exitX=0.5;exitY=0;exitDx=0;exitDy=0;entryX=0;entryY=0.5;entryDx=0;entryDy=0;" edge="1" parent="1" source="nX0PzmXOw6j2l4-ewHw_-1" target="ozT08auzfmHqJbHIW9_--1">
                    <mxGeometry width="50" height="50" relative="1" as="geometry">
                        <mxPoint x="-120" y="160" as="sourcePoint"/>
                        <mxPoint x="-70" y="110" as="targetPoint"/>
                        <Array as="points">
                            <mxPoint x="-120" y="150"/>
                        </Array>
                    </mxGeometry>
                </mxCell>
                <mxCell id="EWJYcGEz_6eXrQEpiyl9-2" value="" style="endArrow=none;html=1;exitX=1;exitY=0.5;exitDx=0;exitDy=0;entryX=0.5;entryY=1;entryDx=0;entryDy=0;" edge="1" parent="1" source="71pW-bURPRTjtUzWfuSU-4" target="ozT08auzfmHqJbHIW9_--1">
                    <mxGeometry width="50" height="50" relative="1" as="geometry">
                        <mxPoint x="-110" y="180" as="sourcePoint"/>
                        <mxPoint x="-50" y="160" as="targetPoint"/>
                        <Array as="points">
                            <mxPoint y="340"/>
                            <mxPoint y="280"/>
                        </Array>
                    </mxGeometry>
                </mxCell>
                <mxCell id="EWJYcGEz_6eXrQEpiyl9-3" value="" style="endArrow=none;html=1;exitX=0.5;exitY=0;exitDx=0;exitDy=0;entryX=0.5;entryY=1.02;entryDx=0;entryDy=0;entryPerimeter=0;" edge="1" parent="1" source="ozT08auzfmHqJbHIW9_--1" target="n-R8Wu0eK0EDk9jY9Tdk-6">
                    <mxGeometry width="50" height="50" relative="1" as="geometry">
                        <mxPoint x="-90" y="160" as="sourcePoint"/>
                        <mxPoint x="-40" y="110" as="targetPoint"/>
                    </mxGeometry>
                </mxCell>
                <mxCell id="EWJYcGEz_6eXrQEpiyl9-4" value="M" style="text;html=1;align=center;verticalAlign=middle;whiteSpace=wrap;rounded=0;" vertex="1" parent="1">
                    <mxGeometry x="-120" y="150" width="20" height="20" as="geometry"/>
                </mxCell>
                <mxCell id="EWJYcGEz_6eXrQEpiyl9-5" value="M" style="text;html=1;align=center;verticalAlign=middle;whiteSpace=wrap;rounded=0;" vertex="1" parent="1">
                    <mxGeometry x="-50" y="320" width="20" height="20" as="geometry"/>
                </mxCell>
                <mxCell id="EWJYcGEz_6eXrQEpiyl9-6" value="N" style="text;html=1;align=center;verticalAlign=middle;whiteSpace=wrap;rounded=0;" vertex="1" parent="1">
                    <mxGeometry y="75" width="20" height="20" as="geometry"/>
                </mxCell>
                <mxCell id="EWJYcGEz_6eXrQEpiyl9-7" value="Has" style="rhombus;whiteSpace=wrap;html=1;" vertex="1" parent="1">
                    <mxGeometry x="95" y="60" width="80" height="80" as="geometry"/>
                </mxCell>
                <mxCell id="EWJYcGEz_6eXrQEpiyl9-8" value="" style="endArrow=none;html=1;exitX=0.493;exitY=1.031;exitDx=0;exitDy=0;exitPerimeter=0;entryX=0;entryY=0.5;entryDx=0;entryDy=0;" edge="1" parent="1" source="n-R8Wu0eK0EDk9jY9Tdk-6" target="EWJYcGEz_6eXrQEpiyl9-7">
                    <mxGeometry width="50" height="50" relative="1" as="geometry">
                        <mxPoint x="100" y="120" as="sourcePoint"/>
                        <mxPoint x="150" y="70" as="targetPoint"/>
                        <Array as="points">
                            <mxPoint x="-1" y="100"/>
                        </Array>
                    </mxGeometry>
                </mxCell>
                <mxCell id="EWJYcGEz_6eXrQEpiyl9-9" value="" style="endArrow=none;html=1;exitX=0.5;exitY=1;exitDx=0;exitDy=0;entryX=0.5;entryY=0;entryDx=0;entryDy=0;" edge="1" parent="1" source="EWJYcGEz_6eXrQEpiyl9-7" target="n-R8Wu0eK0EDk9jY9Tdk-9">
                    <mxGeometry width="50" height="50" relative="1" as="geometry">
                        <mxPoint x="110" y="100" as="sourcePoint"/>
                        <mxPoint x="170" y="130" as="targetPoint"/>
                        <Array as="points">
                            <mxPoint x="135" y="150"/>
                            <mxPoint x="175" y="150"/>
                        </Array>
                    </mxGeometry>
                </mxCell>
                <mxCell id="EWJYcGEz_6eXrQEpiyl9-10" value="M" style="text;html=1;align=center;verticalAlign=middle;whiteSpace=wrap;rounded=0;" vertex="1" parent="1">
                    <mxGeometry x="175" y="140" width="20" height="20" as="geometry"/>
                </mxCell>
                <mxCell id="EWJYcGEz_6eXrQEpiyl9-11" value="" style="group" vertex="1" connectable="0" parent="1">
                    <mxGeometry x="-110" y="90" width="80" height="40" as="geometry"/>
                </mxCell>
                <mxCell id="EWJYcGEz_6eXrQEpiyl9-12" value="" style="ellipse;whiteSpace=wrap;html=1;" vertex="1" parent="EWJYcGEz_6eXrQEpiyl9-11">
                    <mxGeometry width="80" height="40" as="geometry"/>
                </mxCell>
                <mxCell id="EWJYcGEz_6eXrQEpiyl9-13" value="&lt;font&gt;Lines&lt;/font&gt;" style="ellipse;whiteSpace=wrap;html=1;fontSize=14;" vertex="1" parent="EWJYcGEz_6eXrQEpiyl9-11">
                    <mxGeometry x="7.272727272727273" y="3.333333333333485" width="65.45454545454545" height="33.33333333333333" as="geometry"/>
                </mxCell>
                <mxCell id="EWJYcGEz_6eXrQEpiyl9-14" value="" style="endArrow=none;html=1;exitX=1;exitY=1;exitDx=0;exitDy=0;entryX=0;entryY=0;entryDx=0;entryDy=0;" edge="1" parent="1" source="EWJYcGEz_6eXrQEpiyl9-12" target="ozT08auzfmHqJbHIW9_--1">
                    <mxGeometry width="50" height="50" relative="1" as="geometry">
                        <mxPoint x="-60" y="180" as="sourcePoint"/>
                        <mxPoint x="-10" y="130" as="targetPoint"/>
                    </mxGeometry>
                </mxCell>
                <mxCell id="ncilojbk-faZIdEDmUN0-1" value="Powers" style="rhombus;whiteSpace=wrap;html=1;" vertex="1" parent="1">
                    <mxGeometry x="30" y="250" width="80" height="80" as="geometry"/>
                </mxCell>
                <mxCell id="ncilojbk-faZIdEDmUN0-2" value="Powers" style="rhombus;whiteSpace=wrap;html=1;" vertex="1" parent="1">
                    <mxGeometry x="240" y="250" width="80" height="80" as="geometry"/>
                </mxCell>
                <mxCell id="ncilojbk-faZIdEDmUN0-3" value="" style="endArrow=none;html=1;exitX=0.5;exitY=0;exitDx=0;exitDy=0;entryX=0.512;entryY=0.997;entryDx=0;entryDy=0;entryPerimeter=0;" edge="1" parent="1" source="ncilojbk-faZIdEDmUN0-1" target="n-R8Wu0eK0EDk9jY9Tdk-10">
                    <mxGeometry width="50" height="50" relative="1" as="geometry">
                        <mxPoint x="-40" y="350" as="sourcePoint"/>
                        <mxPoint x="10" y="200" as="targetPoint"/>
                        <Array as="points">
                            <mxPoint x="70" y="240"/>
                            <mxPoint x="177" y="240"/>
                        </Array>
                    </mxGeometry>
                </mxCell>
                <mxCell id="ncilojbk-faZIdEDmUN0-4" value="" style="endArrow=none;html=1;exitX=0.5;exitY=0;exitDx=0;exitDy=0;entryX=0.518;entryY=1.017;entryDx=0;entryDy=0;entryPerimeter=0;" edge="1" parent="1" source="ncilojbk-faZIdEDmUN0-2" target="n-R8Wu0eK0EDk9jY9Tdk-10">
                    <mxGeometry width="50" height="50" relative="1" as="geometry">
                        <mxPoint x="80" y="260" as="sourcePoint"/>
                        <mxPoint x="180" y="220" as="targetPoint"/>
                        <Array as="points">
                            <mxPoint x="280" y="240"/>
                            <mxPoint x="176" y="240"/>
                        </Array>
                    </mxGeometry>
                </mxCell>
                <mxCell id="ncilojbk-faZIdEDmUN0-6" value="" style="endArrow=none;html=1;exitX=0.5;exitY=0;exitDx=0;exitDy=0;entryX=0.5;entryY=1;entryDx=0;entryDy=0;" edge="1" parent="1" source="DmA3OzvB5sAEfD2TgtEb-1" target="ncilojbk-faZIdEDmUN0-1">
                    <mxGeometry width="50" height="50" relative="1" as="geometry">
                        <mxPoint x="120" y="370" as="sourcePoint"/>
                        <mxPoint x="170" y="320" as="targetPoint"/>
                    </mxGeometry>
                </mxCell>
                <mxCell id="ncilojbk-faZIdEDmUN0-7" value="" style="endArrow=none;html=1;entryX=0.5;entryY=1;entryDx=0;entryDy=0;exitX=0.5;exitY=0;exitDx=0;exitDy=0;" edge="1" parent="1" source="lbyapU0yViWHDB5D--aP-1" target="ncilojbk-faZIdEDmUN0-2">
                    <mxGeometry width="50" height="50" relative="1" as="geometry">
                        <mxPoint x="180" y="390" as="sourcePoint"/>
                        <mxPoint x="230" y="340" as="targetPoint"/>
                    </mxGeometry>
                </mxCell>
                <mxCell id="ncilojbk-faZIdEDmUN0-8" value="M" style="text;html=1;align=center;verticalAlign=middle;whiteSpace=wrap;rounded=0;" vertex="1" parent="1">
                    <mxGeometry x="70" y="340" width="20" height="20" as="geometry"/>
                </mxCell>
                <mxCell id="ncilojbk-faZIdEDmUN0-9" value="M" style="text;html=1;align=center;verticalAlign=middle;whiteSpace=wrap;rounded=0;" vertex="1" parent="1">
                    <mxGeometry x="280" y="340" width="20" height="20" as="geometry"/>
                </mxCell>
                <mxCell id="ncilojbk-faZIdEDmUN0-11" value="N" style="text;html=1;align=center;verticalAlign=middle;whiteSpace=wrap;rounded=0;" vertex="1" parent="1">
                    <mxGeometry x="175" y="220" width="20" height="20" as="geometry"/>
                </mxCell>
                <mxCell id="ncilojbk-faZIdEDmUN0-12" value="Has" style="rhombus;whiteSpace=wrap;html=1;" vertex="1" parent="1">
                    <mxGeometry x="95" y="-40" width="80" height="80" as="geometry"/>
                </mxCell>
                <mxCell id="ncilojbk-faZIdEDmUN0-13" value="" style="endArrow=none;html=1;exitX=1;exitY=0.5;exitDx=0;exitDy=0;entryX=0;entryY=0.5;entryDx=0;entryDy=0;" edge="1" parent="1" source="n-R8Wu0eK0EDk9jY9Tdk-4" target="ncilojbk-faZIdEDmUN0-12">
                    <mxGeometry width="50" height="50" relative="1" as="geometry">
                        <mxPoint x="90" y="-20" as="sourcePoint"/>
                        <mxPoint x="140" y="-70" as="targetPoint"/>
                    </mxGeometry>
                </mxCell>
                <mxCell id="ncilojbk-faZIdEDmUN0-14" value="" style="endArrow=none;html=1;exitX=1;exitY=0.5;exitDx=0;exitDy=0;entryX=-0.007;entryY=0.819;entryDx=0;entryDy=0;entryPerimeter=0;" edge="1" parent="1" source="ncilojbk-faZIdEDmUN0-12" target="siWWlLIoGMHcFUzlSiL2-2">
                    <mxGeometry width="50" height="50" relative="1" as="geometry">
                        <mxPoint x="80" y="10" as="sourcePoint"/>
                        <mxPoint x="105" y="10" as="targetPoint"/>
                    </mxGeometry>
                </mxCell>
                <mxCell id="ncilojbk-faZIdEDmUN0-15" value="1" style="text;html=1;align=center;verticalAlign=middle;whiteSpace=wrap;rounded=0;" vertex="1" parent="1">
                    <mxGeometry x="70" y="-20" width="20" height="20" as="geometry"/>
                </mxCell>
                <mxCell id="ncilojbk-faZIdEDmUN0-16" value="N" style="text;html=1;align=center;verticalAlign=middle;whiteSpace=wrap;rounded=0;" vertex="1" parent="1">
                    <mxGeometry x="190" y="-20" width="20" height="20" as="geometry"/>
                </mxCell>
                <mxCell id="DfnMfBukdEexbcrvyv7D-1" value="Has" style="rhombus;whiteSpace=wrap;html=1;" vertex="1" parent="1">
                    <mxGeometry x="-25" y="-150" width="50" height="50" as="geometry"/>
                </mxCell>
                <mxCell id="DfnMfBukdEexbcrvyv7D-2" value="" style="endArrow=none;html=1;exitX=0.5;exitY=0;exitDx=0;exitDy=0;entryX=0.5;entryY=1;entryDx=0;entryDy=0;" edge="1" parent="1" source="n-R8Wu0eK0EDk9jY9Tdk-2" target="DfnMfBukdEexbcrvyv7D-1">
                    <mxGeometry width="50" height="50" relative="1" as="geometry">
                        <mxPoint x="20" y="-60" as="sourcePoint"/>
                        <mxPoint x="70" y="-110" as="targetPoint"/>
                    </mxGeometry>
                </mxCell>
                <mxCell id="DfnMfBukdEexbcrvyv7D-3" value="" style="endArrow=none;html=1;exitX=0.5;exitY=0;exitDx=0;exitDy=0;" edge="1" parent="1" source="DfnMfBukdEexbcrvyv7D-1">
                    <mxGeometry width="50" height="50" relative="1" as="geometry">
                        <mxPoint x="30" y="-100" as="sourcePoint"/>
                        <mxPoint y="-170" as="targetPoint"/>
                    </mxGeometry>
                </mxCell>
                <mxCell id="DfnMfBukdEexbcrvyv7D-4" value="1" style="text;html=1;align=center;verticalAlign=middle;whiteSpace=wrap;rounded=0;" vertex="1" parent="1">
                    <mxGeometry y="-95" width="20" height="20" as="geometry"/>
                </mxCell>
                <mxCell id="DfnMfBukdEexbcrvyv7D-5" value="N" style="text;html=1;align=center;verticalAlign=middle;whiteSpace=wrap;rounded=0;" vertex="1" parent="1">
                    <mxGeometry x="-20" y="-170" width="20" height="20" as="geometry"/>
                </mxCell>
                <mxCell id="DfnMfBukdEexbcrvyv7D-6" value="makes" style="rhombus;whiteSpace=wrap;html=1;" vertex="1" parent="1">
                    <mxGeometry x="95" y="-145" width="50" height="50" as="geometry"/>
                </mxCell>
                <mxCell id="DfnMfBukdEexbcrvyv7D-7" value="" style="endArrow=none;html=1;exitX=1;exitY=0;exitDx=0;exitDy=0;entryX=0;entryY=1;entryDx=0;entryDy=0;" edge="1" parent="1" source="n-R8Wu0eK0EDk9jY9Tdk-2" target="DfnMfBukdEexbcrvyv7D-6">
                    <mxGeometry width="50" height="50" relative="1" as="geometry">
                        <mxPoint x="120" y="-60" as="sourcePoint"/>
                        <mxPoint x="170" y="-110" as="targetPoint"/>
                    </mxGeometry>
                </mxCell>
                <mxCell id="DfnMfBukdEexbcrvyv7D-8" value="" style="endArrow=none;html=1;exitX=1;exitY=0;exitDx=0;exitDy=0;entryX=0;entryY=0.5;entryDx=0;entryDy=0;" edge="1" parent="1" source="DfnMfBukdEexbcrvyv7D-6" target="gGTvBcMHWj7LD6NI-nhK-4">
                    <mxGeometry width="50" height="50" relative="1" as="geometry">
                        <mxPoint x="80" y="-65" as="sourcePoint"/>
                        <mxPoint x="118" y="-97" as="targetPoint"/>
                    </mxGeometry>
                </mxCell>
                <mxCell id="DfnMfBukdEexbcrvyv7D-9" value="1" style="text;html=1;align=center;verticalAlign=middle;whiteSpace=wrap;rounded=0;" vertex="1" parent="1">
                    <mxGeometry x="60" y="-95" width="20" height="20" as="geometry"/>
                </mxCell>
                <mxCell id="DfnMfBukdEexbcrvyv7D-10" value="N" style="text;html=1;align=center;verticalAlign=middle;whiteSpace=wrap;rounded=0;" vertex="1" parent="1">
                    <mxGeometry x="190" y="-200" width="20" height="20" as="geometry"/>
                </mxCell>
                <mxCell id="DfnMfBukdEexbcrvyv7D-11" value="includes" style="rhombus;whiteSpace=wrap;html=1;" vertex="1" parent="1">
                    <mxGeometry x="247.5" y="-145" width="65" height="65" as="geometry"/>
                </mxCell>
                <mxCell id="DfnMfBukdEexbcrvyv7D-12" value="" style="endArrow=none;html=1;exitX=0.5;exitY=1;exitDx=0;exitDy=0;entryX=0.5;entryY=0;entryDx=0;entryDy=0;" edge="1" parent="1" source="DfnMfBukdEexbcrvyv7D-11" target="siWWlLIoGMHcFUzlSiL2-1">
                    <mxGeometry width="50" height="50" relative="1" as="geometry">
                        <mxPoint x="80" y="-65" as="sourcePoint"/>
                        <mxPoint x="118" y="-97" as="targetPoint"/>
                    </mxGeometry>
                </mxCell>
                <mxCell id="DfnMfBukdEexbcrvyv7D-13" value="" style="endArrow=none;html=1;exitX=0.5;exitY=0;exitDx=0;exitDy=0;entryX=0.499;entryY=0.976;entryDx=0;entryDy=0;entryPerimeter=0;" edge="1" parent="1" source="DfnMfBukdEexbcrvyv7D-11" target="gGTvBcMHWj7LD6NI-nhK-4">
                    <mxGeometry width="50" height="50" relative="1" as="geometry">
                        <mxPoint x="143" y="-122" as="sourcePoint"/>
                        <mxPoint x="220" y="-175" as="targetPoint"/>
                    </mxGeometry>
                </mxCell>
                <mxCell id="DfnMfBukdEexbcrvyv7D-14" value="N" style="text;html=1;align=center;verticalAlign=middle;whiteSpace=wrap;rounded=0;" vertex="1" parent="1">
                    <mxGeometry x="280" y="-170" width="20" height="20" as="geometry"/>
                </mxCell>
                <mxCell id="DfnMfBukdEexbcrvyv7D-15" value="1" style="text;html=1;align=center;verticalAlign=middle;whiteSpace=wrap;rounded=0;" vertex="1" parent="1">
                    <mxGeometry x="260" y="-75" width="20" height="20" as="geometry"/>
                </mxCell>
            </root>
        </mxGraphModel>
    </diagram>
</mxfile>